Coordinates
version=1
nRows=19
nColumns=36
inDegrees=yes

Units are S.I. units (second, meters, Newtons, ...)
If the header above contains a line with 'inDegrees', this indicates whether rotational values are in degrees (yes) or radians (no).

endheader
time	pelvis_tilt	pelvis_list	pelvis_rotation	pelvis_tx	pelvis_ty	pelvis_tz	hip_flexion_r	hip_adduction_r	hip_rotation_r	knee_angle_r	knee_angle_r_beta	ankle_angle_r	subtalar_angle_r	mtp_angle_r	hip_flexion_l	hip_adduction_l	hip_rotation_l	knee_angle_l	knee_angle_l_beta	ankle_angle_l	subtalar_angle_l	mtp_angle_l	lumbar_extension	lumbar_bending	lumbar_rotation	arm_flex_r	arm_add_r	arm_rot_r	elbow_flex_r	pro_sup_r	arm_flex_l	arm_add_l	arm_rot_l	elbow_flex_l	pro_sup_l
      0.00000000	      0.36554187	      2.07458917	    184.82196747	      0.39955524	      0.85486503	      0.74727121	     12.44045714	      2.97495475	      1.95019672	     32.61757207	      0.56928403	     -5.64684866	    -26.95380215	     -8.14561709	     17.69750945	      1.51459575	      4.34736882	     37.04425943	      0.64654430	     -1.42064717	    -19.74916645	     -8.14561709	    -16.00067887	      1.01306730	      1.41523200	     11.62378034	    -13.74920687	    -13.25385193	     23.62403395	     95.35696332	     19.14929024	    -12.63763687	     -7.44497744	     23.16959533	     92.41736762
      0.01666670	      2.12222204	      1.84881646	    184.28199571	      0.39873141	      0.85145316	      0.74653248	     14.31466483	      2.96272041	      1.56130058	     31.90755568	      0.55689190	     -4.23903307	    -24.55061067	     -8.10877871	     19.66692519	      1.80027256	      3.21357167	     35.26978924	      0.61557395	     -0.65221430	    -13.11685995	     -8.10877871	    -13.80746749	      0.28983475	      1.95942412	     11.98763855	    -14.40530223	    -13.03405237	     23.02483153	     95.60767667	     20.00135265	    -13.38158343	     -9.05822913	     21.82947042	     92.56964241
      0.03333330	      3.82423490	      2.02320192	    183.92053230	      0.39804056	      0.84901286	      0.74748228	     15.89323514	      3.44237878	      1.38766765	     30.13753229	      0.52599917	     -4.45683511	    -23.61844183	     -8.09847135	     20.31443339	      2.19479332	      2.88888917	     30.48987410	      0.53214869	     -3.12570340	    -10.30053891	     -8.09847135	    -11.89269226	      0.40589689	      2.36793910	     11.99394912	    -14.96438392	    -12.93417274	     23.18802242	     95.54022186	     19.36415845	    -13.57694400	     -9.39822315	     21.41720289	     92.54365522
      0.05000000	      8.07771622	      1.96105355	    183.09602424	      0.39741069	      0.84289287	      0.74793467	     20.83218917	      3.73824641	      1.70105470	     29.65305012	      0.51754336	     -2.65813378	    -21.44221244	     -8.06914737	     24.02573055	      2.98525246	      1.86104120	     26.33058823	      0.45955546	     -3.87641531	     -6.52243825	     -8.06914737	     -6.24922913	      0.13734348	      2.99101385	     11.15423645	    -15.30760327	    -12.13796524	     22.46544696	     95.71725083	     17.70883333	    -13.61240595	    -10.46047842	     20.27887074	     93.01886704
      0.06666670	     11.96811838	      2.63134604	    182.66661565	      0.39828530	      0.83822948	      0.75001201	     25.44085437	      4.85522878	      1.49481183	     29.15378248	      0.50882949	     -0.81512755	    -19.06113524	     -8.03812430	     27.50116182	      3.18009746	      1.10588380	     22.67566286	      0.39576498	     -5.05596957	     -3.19951179	     -8.03812430	     -0.92459831	      1.05754160	      3.25924798	     10.13679271	    -15.88797425	    -11.50796210	     21.82943277	     95.70295902	     15.51070893	    -13.46987400	    -10.99577830	     20.06017774	     93.72149835
      0.08333330	     14.31902996	      3.20015148	    182.21042425	      0.40177777	      0.83548703	      0.75275356	     28.14240517	      6.14917233	      1.37953260	     28.17815416	      0.49180157	      0.69786499	    -16.59619418	     -8.00417417	     29.93434581	      3.47225840	      0.62273559	     20.62218892	      0.35992510	     -5.79936989	     -1.89876802	     -8.00417417	      2.52180234	      1.90659670	      3.70857305	      9.61680854	    -16.61469665	    -11.06433095	     21.22132975	     95.38498416	     14.22608192	    -13.35900009	    -11.08877327	     19.91526672	     94.41606323
      0.10000000	     14.81213370	      3.38130764	    181.77935484	      0.40484209	      0.83387876	      0.75435756	     28.13646931	      7.44229643	      1.84235380	     25.88873974	      0.45184375	      1.19640345	    -15.30256730	     -7.99600895	     30.82646967	      3.96778045	      0.08176624	     20.17020896	      0.35203656	     -5.66788346	     -2.14969369	     -7.99600895	      3.30510638	      2.27630989	      4.18123453	      9.75561212	    -17.20666817	    -11.06697103	     21.14959176	     95.20628569	     13.83256869	    -13.39065625	    -11.01274274	     19.94636689	     94.49491990
      0.11666670	     15.24864600	      3.43103792	    181.39832022	      0.40352502	      0.82971540	      0.75300070	     27.68204845	      8.67303286	      1.52537548	     23.18573927	      0.40466749	      2.21056610	    -13.57086688	     -7.98083875	     31.77011820	      4.49365319	     -0.45810114	     20.88315149	      0.36447975	     -4.60680008	     -3.25127350	     -7.98083875	      3.99203548	      2.41434514	      4.74996747	      9.90140238	    -17.74071665	    -11.04871854	     20.54147214	     94.87954253	     13.61633199	    -13.39046988	    -10.70728373	     19.72312466	     94.82446558
      0.13333330	     14.42370695	      2.94944739	    181.02473898	      0.39863589	      0.82529502	      0.74896660	     24.95556126	      9.41854773	      0.72274561	     20.03612287	      0.34969631	      2.45503134	    -11.78603978	     -7.86183604	     30.66565940	      5.29480937	     -1.39249935	     21.49638047	      0.37518262	     -3.09729731	     -4.92105001	     -7.86183604	      3.41941928	      1.80934696	      5.28128901	     10.29613878	    -17.87370396	    -10.85404558	     19.65413344	     92.48001104	     13.71131010	    -13.75141358	     -9.87118773	     18.34977619	     97.03756221
      0.15000000	     12.77349863	      2.22927438	    180.83853668	      0.39579643	      0.82259932	      0.74483657	     20.92944899	      9.70361119	     -0.73808069	     17.34628792	      0.30274984	      2.04871724	    -10.14088403	     -7.81526606	     28.82083971	      6.20778220	     -2.38152053	     22.86088116	      0.39899765	     -1.43917185	     -7.20355780	     -7.81526606	      1.75445155	      0.79896739	      5.43949493	     10.99762202	    -17.72555685	    -11.23336918	     18.61196300	     91.04456746	     13.71240707	    -14.12136176	    -10.83238152	     16.69460671	     96.26879860
      0.16666670	     10.52221407	      1.53922118	    180.82091805	      0.39623101	      0.82223439	      0.74149517	     16.26210282	      9.71195270	     -2.16615875	     15.54644040	      0.27133657	      1.03066871	     -9.09857034	     -7.79375609	     26.11831629	      7.04369206	     -2.76854340	     24.36082442	      0.42517659	     -0.69245992	    -10.47954037	     -7.79375609	     -0.56736144	     -0.20031570	      5.29961764	     11.70025810	    -17.52466096	    -12.19741489	     17.67933498	     90.51763937	     13.72156143	    -14.69004784	    -12.03072090	     15.12390379	     96.59031494
      0.18333330	      8.37406529	      1.28419080	    180.78281252	      0.39829685	      0.82333103	      0.73870293	     12.57467926	      9.93814668	     -3.96219914	     15.64695284	      0.27309084	      0.00843311	     -8.37329422	     -7.77717327	     23.51046310	      7.40561187	     -2.62768260	     25.61862179	      0.44712930	     -0.47914482	    -13.44419416	     -7.77717327	     -2.82344495	     -0.66729946	      4.95509309	     12.30078743	    -17.33004666	    -13.34842827	     16.67467885	     89.94102267	     13.56372393	    -15.17343587	    -13.42431293	     13.48659950	     96.77826673
      0.20000000	      6.35828153	      1.55639124	    180.66317144	      0.40045144	      0.82532566	      0.73717767	      9.99949041	     10.61334124	     -5.61393086	     17.45579276	      0.30466106	      0.22212260	     -8.04329837	     -7.75845253	     21.11679307	      7.12449908	     -2.70286517	     26.64729937	      0.46508311	     -1.28714489	    -15.86739029	     -7.75845253	     -5.02920860	     -0.43988250	      4.66115349	     12.76324139	    -17.23753404	    -14.87648951	     15.82599642	     89.22344607	     13.33612626	    -15.41604432	    -15.22500433	     12.38792252	     96.99144913
      0.21666670	      4.63223383	      1.73189063	    180.59983570	      0.40171183	      0.82668767	      0.73711142	      7.91722883	     10.91898774	     -6.81926902	     19.27878823	      0.33647833	      0.27318200	     -8.07330281	     -7.74531147	     18.48240928	      6.95737272	     -3.13626952	     27.00621024	      0.47134729	     -2.68025899	    -17.66615806	     -7.74531147	     -6.48267078	     -0.24112612	      4.20380159	     12.94425945	    -17.07866448	    -16.18657281	     14.94011395	     88.68855247	     12.99190783	    -15.75013347	    -16.55610695	     11.44048251	     97.18132593
      0.23333330	      3.21732578	      2.36057676	    180.66327141	      0.40289855	      0.82912079	      0.73782387	      7.07418659	     11.62781004	     -8.18135516	     22.27090910	      0.38870069	      2.52154065	     -7.86768768	     -7.65566608	     16.51384396	      6.37115338	     -3.83906329	     27.70979290	      0.48362712	     -3.47681615	    -18.70796167	     -7.65566608	     -8.01952339	      0.53471218	      3.81741496	     12.87196885	    -16.87507785	    -19.32267508	     14.58210719	     87.50194919	     12.51274118	    -15.57559821	    -20.64852236	     11.37167783	     99.95831749
      0.25000000	      2.03706241	      2.74837682	    180.88898779	      0.40389563	      0.83080700	      0.73849298	      6.72248043	     11.90113183	     -9.32488318	     25.54884172	      0.44591141	      5.66116927	     -7.36901294	     -7.64976995	     15.13125011	      6.09560611	     -4.70121196	     28.59417773	      0.49906255	     -4.31780042	    -19.68610778	     -7.64976995	     -9.27407324	      1.04465338	      3.22984597	     12.66950325	    -16.92210057	    -19.68168442	     14.22896517	     87.34222102	     12.14455518	    -15.68307625	    -20.68755590	     10.98905784	    100.09860060
      0.26666670	      1.08770432	      3.00682099	    181.12459020	      0.40565858	      0.83112879	      0.73951506	      7.17859491	     11.57837247	    -11.01950023	     30.02620931	      0.52405621	      7.94044391	     -6.27597581	     -7.64312338	     14.29782947	      6.05219582	     -5.20922005	     29.59701941	      0.51656544	     -5.24243741	    -20.75646740	     -7.64312338	    -10.34981583	      1.46830944	      2.63776316	     12.45896971	    -17.00705592	    -20.26377386	     14.01338980	     87.05355841	     11.78402705	    -15.67408029	    -20.68498053	     10.74696649	    100.25383582
      0.28333330	      0.19400687	      2.88446767	    181.44733018	      0.40815421	      0.82991195	      0.74115850	      7.24709138	     10.52657798	    -12.32780894	     33.62230925	      0.58682000	      5.32555307	     -6.13292423	     -7.64198507	     14.03961730	      6.30182109	     -5.74801332	     31.48368205	      0.54949391	     -6.01598971	    -21.01092155	     -7.64198507	    -11.19413657	      1.53614944	      2.06896225	     12.01928451	    -17.17698756	    -20.41632538	     13.91803240	     86.98598977	     11.57356224	    -15.69963930	    -20.66092200	     10.60281692	    100.28818277
      0.30000000	      1.42210621	      2.70824917	    181.40980733	      0.41056804	      0.82567762	      0.74289568	     10.88437701	      9.22084614	    -13.07224366	     39.63374785	      0.69173939	      3.37939920	     -5.91382739	     -7.63346503	     16.15089131	      6.61749912	     -5.99999934	     33.80651205	      0.59003494	     -8.36806355	    -22.63652215	     -7.63346503	     -9.42935272	      1.43906566	      1.17007952	     11.30292048	    -16.96575754	    -21.06593664	     14.20532809	     86.57946923	     10.51096222	    -15.87889824	    -20.41067804	     10.47160674	    100.50499349
